<svg width="1082" height="146" viewBox="0 0 1082 146" fill="none" shape-rendering="geometricPrecision" xmlns="http://www.w3.org/2000/svg">
    <g id="slack-logo">
        <path
            d="M944.02 90.69H957.7C949.34 124.7 929.2 140.66 895 140.66C854.72 140.66 828.69 114.63 828.69 74.73C828.69 57.82 833.82 42.24 843.13 30.46C854.72 16.02 872.77 8.60999 896.33 8.60999C917.42 8.60999 934.33 15.45 945.73 28.75C952.19 36.16 954.85 43 956.37 54.59H943.45C938.51 31.79 922.55 19.82 896.9 19.82C875.24 19.82 858.71 27.8 849.78 42.81C844.46 51.74 841.61 62.76 841.61 74.54C841.61 107.98 862.32 129.45 894.43 129.45C912.86 129.45 927.87 122.42 936.42 109.69C940.22 104.18 942.12 99.62 944.02 90.69ZM965.03 138V126.22L1050.15 32.17C1052.24 29.7 1054.33 27.8 1061.36 21.72C1053.38 22.86 1049.77 23.05 1041.41 23.05H969.4V11.27H1074.47V23.05L990.87 115.01C986.5 119.95 984.22 122.04 978.33 127.17C986.5 126.41 990.11 126.22 994.1 126.22H1076.56V138H965.03Z"
            fill="currentColor" />
        <path d="M761 103L791.311 51.25H730.689L761 103Z" fill="#E1005B" />
        <path
            d="M516.83 86.41H551.79C542.67 122.7 517.97 140.56 477.12 140.56C454.13 140.56 435.7 134.86 422.4 123.27C408.53 111.3 400.93 94.01 400.93 73.87C400.93 32.26 431.33 4.89999 477.88 4.89999C499.92 4.89999 517.4 10.98 531.27 23.14C541.15 32.07 547.04 41.19 549.89 53.54H515.69C509.23 37.58 496.5 29.6 477.88 29.6C452.42 29.6 434.56 47.84 434.56 73.3C434.56 98.38 452.23 115.86 477.31 115.86C497.45 115.86 509.42 106.93 516.83 86.41ZM576.119 136V9.26999H607.849V59.05L663.709 9.26999H708.359L648.699 60.76L711.019 136H668.839L624.759 81.09L607.849 95.72V136H576.119Z"
            fill="currentColor" />
        <path d="M397 136L337.281 10H306L362.875 136H397Z" fill="currentColor" />
        <path d="M246 136L305.719 10H337L280.125 136H246Z" fill="currentColor" />
        <path
            d="M60.65 55.25L91.43 58.48C107.77 60.19 116.51 62.09 125.06 66.46C136.65 72.16 143.87 83.94 143.87 97.24C143.87 112.06 135.13 125.36 120.88 132.2C108.72 138.09 94.47 140.56 73.95 140.56C48.11 140.56 29.87 135.62 18.28 125.55C9.54 117.76 6.12 109.59 4.98 92.87H38.23C39.18 101.23 41.46 105.6 46.59 109.59C53.62 114.91 62.36 117.19 75.47 117.19C96.18 117.19 108.15 111.11 108.15 100.66C108.15 92.3 101.88 88.12 87.06 86.6L51.34 82.99C23.79 80.14 8.59 67.6 8.59 47.46C8.59 21.05 32.91 4.89999 72.43 4.89999C92.38 4.89999 110.43 9.46 121.83 17.25C131.71 24.09 136.08 32.07 138.55 47.08H105.11C102.83 39.48 100.17 35.49 94.47 32.64C88.58 29.6 81.55 28.27 72.24 28.27C53.62 28.27 42.22 33.97 42.22 43.47C42.22 50.69 47.16 53.92 60.65 55.25ZM166.372 136V9.26999H198.102V110.35H264.222V136H166.372Z"
            fill="currentColor" />
    </g>
</svg>
