<svg xmlns="http://www.w3.org/2000/svg" viewBox="0 0 4000 507" preserveAspectRatio="xMidYMid meet">
  <g transform="translate(0,507) scale(0.1,-0.1)" stroke="none">
    <g fill="currentColor">
<path d="M2047 5050 c-5 -19 -14 -20 -146 -20 -122 0 -141 -2 -150 -17 -8 -14
-22 -17 -85 -14 -66 2 -77 0 -93 -18 -14 -17 -29 -21 -80 -21 -52 0 -64 -3
-73 -20 -8 -15 -21 -20 -54 -20 -30 0 -48 -6 -61 -20 -13 -14 -31 -20 -62 -20
-30 0 -45 -5 -49 -15 -4 -10 -20 -15 -49 -15 -29 0 -47 -6 -60 -20 -10 -11
-28 -20 -40 -20 -12 0 -30 -9 -40 -20 -10 -11 -28 -20 -39 -20 -12 0 -29 -9
-39 -20 -9 -11 -26 -20 -37 -20 -11 0 -35 -16 -53 -35 -17 -19 -41 -35 -52
-35 -12 0 -36 -16 -55 -35 -19 -19 -42 -35 -53 -35 -25 0 -307 -280 -307 -306
0 -11 -16 -35 -35 -54 -20 -19 -35 -44 -35 -57 0 -12 -9 -27 -20 -33 -13 -7
-20 -21 -20 -38 0 -15 -9 -35 -20 -45 -11 -9 -20 -25 -20 -36 0 -10 -7 -24
-15 -31 -9 -8 -15 -29 -15 -56 0 -33 -5 -46 -20 -54 -18 -9 -20 -21 -20 -95 0
-74 -2 -86 -20 -95 -19 -10 -20 -21 -20 -205 0 -184 1 -195 20 -205 18 -9 20
-21 20 -93 0 -71 3 -84 20 -95 11 -7 20 -23 20 -36 0 -13 7 -29 15 -36 9 -7
15 -29 15 -51 0 -31 7 -45 40 -78 22 -22 40 -49 40 -60 0 -11 24 -42 55 -72
34 -32 55 -60 55 -74 0 -27 49 -75 77 -75 11 0 42 -23 72 -55 30 -31 61 -55
72 -55 11 0 38 -18 60 -40 24 -24 49 -40 63 -40 13 0 26 -7 30 -15 3 -8 16
-15 29 -15 13 0 32 -9 42 -20 10 -11 28 -20 40 -20 12 0 30 -9 40 -20 12 -14
31 -20 59 -20 30 0 44 -5 54 -20 9 -15 23 -20 57 -20 31 0 47 -5 51 -15 5 -11
22 -15 69 -15 49 0 66 -4 80 -20 15 -17 31 -20 95 -20 64 0 80 -3 95 -20 16
-18 31 -20 150 -20 121 0 134 -2 151 -21 17 -19 28 -20 187 -18 149 2 170 0
179 -14 8 -15 31 -17 182 -17 160 0 174 -1 191 -20 17 -18 31 -20 170 -20 139
0 153 -2 170 -20 17 -18 31 -20 170 -20 123 0 155 -3 165 -15 9 -11 33 -15 91
-15 68 0 81 -3 91 -20 10 -15 24 -20 54 -20 28 0 47 -6 59 -20 10 -11 28 -20
40 -20 12 0 30 -9 40 -20 10 -11 27 -20 38 -20 11 0 55 -36 103 -84 79 -78 84
-86 84 -125 0 -28 5 -44 15 -47 22 -9 22 -206 0 -224 -9 -7 -15 -29 -15 -51 0
-34 -9 -46 -105 -143 -72 -74 -111 -106 -127 -106 -13 0 -29 -9 -36 -20 -7
-11 -23 -20 -36 -20 -13 0 -29 -7 -36 -15 -7 -8 -23 -15 -36 -15 -13 0 -29 -9
-36 -20 -10 -15 -24 -20 -54 -20 -28 0 -47 -6 -59 -20 -15 -17 -31 -20 -92
-20 -60 0 -80 -4 -101 -20 -24 -20 -38 -21 -224 -19 -181 1 -201 0 -219 -17
-20 -18 -21 -18 -34 0 -13 17 -30 18 -219 17 -194 -2 -206 -1 -226 19 -17 17
-33 20 -100 20 -69 0 -81 3 -90 20 -8 15 -21 20 -54 20 -30 0 -48 6 -61 20
-10 11 -28 20 -40 20 -13 0 -28 7 -35 15 -7 8 -23 15 -36 15 -13 0 -28 9 -34
20 -7 13 -21 20 -40 20 -19 0 -33 7 -40 20 -6 11 -21 20 -33 20 -31 0 -267
237 -267 268 0 12 -7 25 -15 28 -8 4 -15 17 -15 30 0 13 -9 31 -19 41 -12 12
-21 35 -23 63 l-3 45 -632 3 -633 2 0 -74 c0 -65 2 -74 20 -79 18 -5 20 -14
20 -82 0 -60 4 -82 19 -100 14 -19 17 -35 13 -74 -4 -41 -1 -52 17 -67 11 -10
21 -28 21 -40 0 -11 9 -29 20 -39 11 -10 20 -28 20 -39 0 -12 9 -29 20 -39 11
-9 20 -28 20 -42 0 -14 7 -28 15 -31 8 -4 15 -16 15 -29 0 -15 21 -44 60 -81
34 -34 60 -68 60 -79 0 -27 119 -145 146 -145 13 0 43 -23 73 -55 32 -34 61
-55 74 -55 13 0 36 -16 57 -40 24 -27 43 -40 61 -40 15 0 29 -7 33 -15 3 -8
16 -15 29 -15 13 0 32 -9 42 -20 10 -11 29 -20 41 -20 13 0 29 -9 36 -20 7
-11 24 -20 38 -20 14 0 33 -9 43 -20 11 -14 29 -20 56 -20 22 0 44 -6 51 -15
7 -9 29 -15 51 -15 27 0 45 -6 56 -20 12 -14 30 -20 59 -20 28 0 46 -6 59 -20
15 -17 31 -20 94 -20 65 0 79 -3 94 -21 16 -18 27 -20 94 -18 62 3 77 0 88
-14 11 -15 32 -17 170 -17 148 0 157 -1 162 -20 5 -20 14 -20 528 -20 514 0
523 0 528 20 5 19 14 20 158 20 129 0 155 3 171 17 15 14 36 16 111 14 83 -2
95 0 111 18 15 17 31 21 76 21 44 0 61 4 75 20 14 16 31 20 79 20 50 0 63 4
74 20 9 15 23 20 57 20 31 0 47 5 51 15 4 8 17 15 30 15 13 0 32 9 41 20 12
14 30 20 59 20 28 0 46 6 59 20 10 11 28 20 39 20 12 0 29 9 39 20 9 11 28 20
41 20 13 0 26 7 30 15 3 8 16 15 29 15 14 0 39 16 62 40 21 22 48 40 59 40 29
0 376 347 376 375 0 12 16 36 35 55 20 19 35 44 35 57 0 12 9 27 20 33 12 6
20 21 20 35 0 14 9 34 20 45 14 14 18 28 14 49 -5 21 -1 34 15 50 14 14 21 34
21 59 0 26 7 45 20 57 17 15 20 31 20 95 0 64 3 80 20 95 18 17 20 31 20 167
0 136 -2 150 -20 165 -17 15 -20 30 -20 94 0 63 -3 79 -20 94 -14 13 -20 31
-20 59 0 29 -6 47 -20 59 -11 9 -20 28 -20 41 0 13 -7 26 -15 30 -8 3 -15 16
-15 29 0 13 -9 32 -20 42 -11 10 -20 28 -20 40 0 12 -9 30 -20 40 -11 10 -20
27 -20 37 0 26 -304 328 -330 328 -11 0 -28 9 -37 20 -10 11 -27 20 -38 20
-12 0 -39 18 -60 40 -33 34 -45 40 -81 40 -28 0 -44 5 -48 15 -3 8 -16 15 -29
15 -13 0 -32 9 -42 20 -13 14 -31 20 -59 20 -29 0 -47 6 -59 20 -11 13 -29 20
-53 20 -21 0 -47 8 -62 20 -18 15 -34 19 -53 15 -20 -5 -33 -1 -48 14 -18 18
-33 21 -101 21 -69 0 -81 3 -90 20 -10 18 -21 20 -129 20 -105 0 -120 2 -136
20 -17 18 -31 20 -172 20 -127 0 -155 3 -159 15 -5 13 -35 15 -180 15 -162 0
-175 1 -191 20 -16 19 -30 20 -189 20 -158 0 -172 1 -189 20 -17 18 -31 20
-170 20 -139 0 -153 2 -170 20 -16 18 -31 20 -135 20 -96 0 -119 3 -124 15 -4
11 -21 15 -66 15 -48 0 -64 4 -77 20 -12 14 -30 20 -58 20 -35 0 -47 6 -80 40
-21 22 -44 39 -50 39 -26 -3 -35 3 -35 24 0 13 -9 32 -20 42 -11 10 -20 28
-20 40 0 12 -9 30 -20 40 -18 16 -20 31 -20 130 0 99 2 114 20 130 11 10 20
28 20 39 0 29 198 226 226 226 12 0 27 7 34 15 7 8 23 15 36 15 13 0 29 9 36
20 10 15 24 20 54 20 28 0 47 6 59 20 14 16 31 20 77 20 45 0 63 5 78 20 20
20 32 21 227 19 180 -1 207 1 215 15 12 21 64 21 76 0 8 -14 33 -16 199 -15
179 2 190 1 208 -19 14 -16 30 -20 75 -20 44 0 61 -4 75 -20 13 -14 31 -20 59
-20 29 0 47 -6 59 -20 9 -11 28 -20 41 -20 13 0 26 -7 30 -15 3 -8 16 -15 29
-15 13 0 32 -9 42 -20 10 -11 27 -20 39 -20 28 0 226 -197 226 -225 0 -12 22
-42 48 -68 l48 -47 595 0 c449 0 598 3 607 12 7 7 12 41 12 83 0 59 -4 75 -20
90 -14 13 -20 31 -20 61 0 33 -5 46 -20 54 -12 7 -20 21 -20 38 0 16 -8 32
-20 40 -15 9 -20 23 -20 55 0 35 -6 47 -35 74 -19 18 -35 42 -35 53 0 12 -18
39 -40 61 -22 22 -40 48 -40 58 0 26 -200 221 -226 221 -11 0 -34 16 -50 35
-17 21 -38 35 -51 35 -14 0 -38 16 -60 40 -21 22 -47 40 -59 40 -12 0 -27 7
-34 15 -7 8 -21 15 -31 15 -11 0 -28 9 -39 20 -11 11 -31 20 -45 20 -14 0 -29
8 -35 20 -7 12 -21 20 -38 20 -16 0 -32 8 -40 20 -9 15 -23 20 -57 20 -31 0
-47 5 -51 15 -4 10 -20 15 -49 15 -29 0 -47 6 -60 20 -14 16 -31 20 -81 20
-53 0 -65 3 -74 20 -9 17 -21 20 -73 20 -51 0 -66 4 -80 21 -16 18 -27 20 -93
18 -63 -3 -77 0 -85 14 -9 15 -28 17 -150 17 -132 0 -141 1 -146 20 -5 20 -14
20 -453 20 -439 0 -448 0 -453 -20z"/>
<path d="M17272 5050 c-11 -18 -23 -20 -144 -20 -110 0 -135 -3 -150 -17 -15
-14 -35 -17 -92 -14 -62 2 -74 -1 -90 -18 -15 -17 -31 -21 -78 -21 -46 0 -62
-4 -75 -20 -12 -14 -30 -20 -58 -20 -28 0 -46 -6 -58 -20 -12 -14 -29 -20 -61
-20 -30 0 -46 -5 -50 -15 -3 -8 -16 -15 -29 -15 -13 0 -32 -9 -42 -20 -13 -14
-31 -20 -61 -20 -33 0 -46 -5 -54 -20 -6 -11 -21 -20 -34 -20 -13 0 -31 -9
-41 -20 -10 -11 -28 -20 -40 -20 -13 0 -28 -7 -35 -15 -7 -8 -22 -15 -34 -15
-12 0 -36 -17 -56 -40 -24 -27 -43 -40 -61 -40 -15 0 -29 -7 -33 -15 -3 -8
-16 -15 -28 -15 -16 0 -44 -21 -83 -60 -34 -34 -68 -60 -80 -60 -27 0 -405
-377 -405 -405 0 -12 -24 -44 -55 -75 -34 -34 -55 -63 -55 -77 0 -12 -9 -27
-20 -33 -12 -6 -20 -21 -20 -36 0 -17 -14 -39 -40 -64 -22 -21 -40 -47 -40
-58 0 -11 -7 -25 -15 -32 -8 -7 -15 -23 -15 -36 0 -13 -9 -29 -20 -36 -15 -10
-20 -24 -20 -58 0 -34 -5 -48 -20 -58 -11 -7 -20 -22 -20 -34 0 -12 -8 -30
-17 -40 -10 -12 -16 -32 -15 -53 2 -24 -3 -40 -18 -52 -16 -14 -20 -30 -20
-80 0 -52 -3 -64 -20 -73 -18 -9 -20 -21 -20 -95 0 -74 -2 -86 -20 -95 -19
-10 -20 -21 -20 -184 0 -142 -3 -176 -15 -186 -12 -10 -15 -36 -15 -115 0 -82
3 -104 15 -109 13 -4 15 -34 15 -179 0 -161 1 -175 20 -192 17 -15 20 -31 20
-95 0 -64 3 -80 20 -95 16 -14 20 -31 20 -75 0 -45 4 -61 21 -76 16 -14 20
-27 15 -52 -4 -25 0 -37 15 -50 10 -9 19 -27 19 -39 0 -13 9 -31 20 -40 11
-10 20 -27 20 -39 0 -11 9 -29 20 -39 13 -12 20 -31 20 -57 0 -31 7 -45 35
-71 19 -17 35 -41 35 -53 0 -11 9 -29 20 -39 11 -10 20 -28 20 -40 0 -11 16
-36 35 -55 19 -19 35 -42 35 -52 0 -10 43 -61 95 -113 52 -53 95 -104 95 -115
0 -25 86 -110 112 -110 11 0 50 -31 93 -75 40 -41 81 -75 92 -75 10 0 43 -25
73 -55 32 -32 63 -55 76 -55 11 0 29 -9 39 -20 10 -11 28 -20 39 -20 12 0 29
-9 39 -20 9 -11 28 -20 41 -20 13 0 26 -7 30 -15 3 -8 16 -15 29 -15 13 0 32
-9 42 -20 10 -11 28 -20 40 -20 12 0 30 -9 40 -20 10 -11 28 -20 39 -20 12 0
29 -9 39 -20 11 -14 29 -20 56 -20 22 0 44 -6 51 -15 7 -9 29 -15 51 -15 27 0
45 -6 56 -20 12 -14 30 -20 59 -20 28 0 46 -6 59 -20 14 -16 31 -20 77 -20 45
0 63 -5 79 -21 17 -17 31 -20 90 -18 52 2 73 -2 87 -14 15 -14 42 -17 156 -17
129 0 138 -1 143 -20 5 -20 14 -20 413 -20 399 0 408 0 413 20 5 19 14 20 146
20 119 0 141 2 149 16 8 14 24 16 85 15 65 -1 79 1 97 19 15 15 33 20 78 20
46 0 63 4 77 20 12 14 31 20 59 20 30 0 44 5 54 20 9 15 23 20 57 20 31 0 47
5 51 15 4 10 20 15 50 15 32 0 49 6 61 20 10 11 27 20 39 20 11 0 29 9 39 20
10 11 28 20 39 20 12 0 29 9 39 20 9 11 28 20 41 20 13 0 26 7 30 15 3 8 16
15 29 15 14 0 39 16 62 40 21 22 48 40 60 40 12 0 44 23 75 55 30 30 63 55 73
55 25 0 377 352 377 377 0 10 25 43 55 73 31 31 55 63 55 75 0 11 16 35 35 52
22 21 35 42 35 57 0 15 8 30 20 36 12 7 20 21 20 38 0 16 8 32 20 40 11 7 20
23 20 36 0 13 7 29 15 36 8 7 15 23 15 36 0 13 9 29 20 36 12 8 20 24 20 40 0
17 8 31 20 38 15 8 20 21 20 54 0 30 6 48 20 61 14 13 20 31 20 60 0 29 5 45
15 49 10 4 15 20 15 51 0 34 5 48 20 57 15 10 20 24 20 54 0 28 6 47 20 59 11
10 17 22 14 26 -3 5 -304 9 -669 9 l-665 0 -6 -25 c-3 -14 -4 -31 -1 -39 3 -8
-3 -26 -14 -39 -10 -14 -19 -35 -19 -46 0 -11 -9 -26 -20 -33 -12 -8 -20 -24
-20 -40 0 -17 -8 -31 -20 -38 -11 -6 -20 -21 -20 -34 0 -13 -7 -29 -15 -36 -8
-7 -15 -21 -15 -31 0 -11 -18 -39 -40 -63 -22 -24 -40 -51 -40 -61 0 -10 -25
-41 -55 -70 -33 -32 -55 -62 -55 -74 0 -28 -125 -151 -154 -151 -12 0 -34 -15
-50 -35 -17 -20 -39 -35 -51 -35 -11 0 -39 -18 -60 -40 -22 -22 -49 -40 -60
-40 -12 0 -30 -9 -40 -20 -13 -14 -31 -20 -60 -20 -29 0 -45 -5 -49 -15 -4
-10 -19 -15 -49 -15 -31 0 -49 -6 -62 -20 -14 -16 -31 -20 -75 -20 -44 0 -61
-4 -75 -20 -17 -19 -31 -20 -321 -20 -293 0 -304 1 -314 20 -9 18 -21 20 -93
20 -71 0 -84 3 -95 20 -9 15 -23 20 -57 20 -31 0 -47 5 -51 15 -4 10 -20 15
-50 15 -32 0 -49 6 -61 20 -10 11 -27 20 -39 20 -11 0 -29 9 -39 20 -10 11
-28 20 -39 20 -12 0 -36 16 -53 35 -18 19 -42 35 -54 35 -13 0 -42 21 -74 55
-28 30 -60 55 -71 55 -26 0 -154 127 -154 152 0 11 -25 44 -55 73 -31 31 -55
63 -55 75 0 11 -9 28 -20 37 -11 10 -20 27 -20 39 0 11 -9 29 -20 39 -11 10
-20 28 -20 39 0 12 -9 29 -20 39 -11 9 -20 28 -20 41 0 13 -7 26 -15 30 -10 4
-15 19 -15 49 0 31 -6 49 -20 62 -14 13 -20 31 -20 61 0 33 -5 46 -20 54 -18
10 -20 21 -20 109 0 85 -3 100 -20 116 -19 17 -20 31 -20 202 0 171 1 184 20
200 17 15 20 30 20 114 0 83 3 98 20 114 16 14 20 31 20 75 0 44 4 61 20 75
11 10 20 29 20 42 0 13 7 26 15 29 10 4 15 20 15 50 0 32 6 49 20 61 11 10 20
27 20 39 0 11 9 29 20 39 11 10 20 28 20 39 0 12 16 36 35 53 19 18 35 41 35
52 0 27 313 341 341 341 11 0 34 16 52 35 17 19 41 35 53 35 11 0 29 9 39 20
10 11 28 20 40 20 12 0 30 9 40 20 10 11 28 20 39 20 12 0 29 9 39 20 9 11 28
20 41 20 13 0 26 7 30 15 4 10 20 15 51 15 34 0 48 5 57 20 11 17 24 20 95 20
72 0 84 2 93 20 10 19 21 20 335 20 314 0 325 -1 335 -20 9 -17 21 -20 74 -20
50 0 67 -4 81 -20 13 -14 31 -20 60 -20 29 0 45 -5 49 -15 4 -10 20 -15 51
-15 34 0 48 -5 57 -20 8 -12 24 -20 40 -20 17 0 31 -8 38 -20 6 -12 21 -20 36
-20 15 0 36 -13 57 -35 17 -19 41 -35 52 -35 26 0 265 -238 265 -263 0 -10 18
-36 40 -58 24 -24 40 -49 40 -63 0 -13 7 -26 15 -30 8 -3 15 -16 15 -29 0 -13
9 -32 20 -42 11 -10 20 -28 20 -40 0 -12 9 -30 19 -39 11 -10 21 -30 23 -45
l3 -26 639 -3 c410 -1 643 1 650 8 6 6 4 16 -7 28 -12 13 -17 36 -17 74 0 42
-5 59 -20 73 -14 13 -20 31 -20 61 0 33 -5 46 -20 54 -12 7 -20 21 -20 38 0
16 -8 32 -20 40 -15 9 -20 23 -20 57 0 31 -5 47 -15 51 -8 4 -15 18 -15 33 0
18 -13 37 -40 61 -24 21 -40 44 -40 58 0 13 -15 36 -35 55 -19 17 -35 41 -35
52 0 12 -24 44 -55 75 -30 30 -55 63 -55 73 0 24 -201 227 -226 227 -11 0 -60
41 -114 95 -61 62 -102 95 -116 95 -13 0 -35 15 -53 35 -18 21 -40 35 -53 35
-14 0 -37 16 -58 40 -24 27 -43 40 -61 40 -15 0 -29 7 -33 15 -3 8 -16 15 -29
15 -13 0 -32 9 -42 20 -10 11 -29 20 -41 20 -13 0 -29 9 -36 20 -7 11 -24 20
-38 20 -14 0 -33 9 -43 20 -11 14 -29 20 -56 20 -22 0 -44 6 -51 15 -7 8 -23
15 -36 15 -13 0 -29 9 -36 20 -10 15 -24 20 -54 20 -28 0 -47 6 -59 20 -14 16
-31 20 -77 20 -45 0 -63 5 -78 20 -18 18 -32 20 -97 19 -61 -1 -77 1 -85 15
-8 13 -28 16 -129 16 -112 0 -121 1 -126 20 -5 20 -14 20 -412 20 -395 0 -407
-1 -419 -20z"/>
<path d="M33025 4940 c-17 -18 -31 -20 -170 -20 -139 0 -153 -2 -170 -20 -15
-17 -31 -20 -95 -20 -57 0 -81 -4 -90 -15 -8 -10 -31 -15 -70 -15 -44 0 -61
-4 -75 -20 -13 -14 -31 -20 -61 -20 -33 0 -46 -5 -54 -20 -8 -15 -21 -20 -54
-20 -31 0 -48 -6 -62 -21 -14 -16 -27 -20 -52 -15 -24 4 -38 0 -53 -15 -10
-10 -28 -19 -39 -19 -11 0 -28 -9 -37 -20 -10 -11 -27 -20 -38 -20 -12 0 -36
-16 -55 -35 -19 -19 -42 -35 -52 -35 -10 0 -27 -9 -38 -20 -11 -11 -29 -20
-41 -20 -12 0 -43 -23 -74 -55 -30 -30 -63 -55 -73 -55 -27 0 -302 -276 -302
-302 0 -12 -23 -43 -55 -73 -31 -29 -55 -60 -55 -72 0 -11 -9 -28 -20 -38 -11
-10 -20 -28 -20 -40 0 -11 -18 -38 -40 -60 -24 -23 -40 -48 -40 -62 0 -13 -7
-26 -15 -29 -8 -4 -15 -17 -15 -30 0 -13 -9 -32 -20 -41 -11 -10 -20 -27 -20
-39 0 -11 -9 -29 -20 -39 -14 -13 -20 -31 -20 -62 0 -30 -5 -45 -15 -49 -8 -4
-15 -17 -15 -30 0 -13 -9 -32 -20 -41 -14 -12 -20 -30 -20 -60 0 -32 -5 -45
-20 -53 -17 -9 -20 -21 -20 -74 0 -50 -4 -67 -20 -81 -17 -15 -20 -31 -20 -97
0 -61 -3 -80 -15 -84 -12 -5 -15 -33 -15 -165 0 -148 -1 -159 -20 -169 -19
-10 -20 -21 -20 -168 0 -145 2 -159 20 -175 18 -15 20 -29 20 -171 0 -128 3
-155 15 -160 12 -4 15 -24 15 -86 0 -68 3 -83 20 -97 16 -14 20 -30 20 -80 0
-52 3 -64 20 -73 15 -8 20 -21 20 -54 0 -30 6 -48 20 -61 14 -13 19 -29 18
-58 -1 -27 4 -42 15 -49 9 -5 17 -19 17 -32 0 -13 9 -31 20 -41 11 -10 20 -28
20 -40 0 -12 9 -30 20 -40 11 -10 20 -29 20 -42 0 -13 7 -26 15 -29 8 -4 15
-17 15 -30 0 -13 9 -32 20 -41 11 -10 20 -27 20 -38 0 -12 18 -39 40 -60 22
-21 40 -48 40 -58 0 -11 33 -53 75 -95 41 -41 75 -83 75 -93 0 -25 155 -179
179 -179 11 0 53 -33 94 -75 42 -42 83 -75 93 -75 11 0 38 -18 59 -40 23 -24
48 -40 62 -40 13 0 26 -7 29 -15 4 -8 17 -15 30 -15 13 0 32 -9 41 -20 10 -11
27 -20 39 -20 11 0 29 -9 39 -20 10 -11 28 -20 40 -20 12 0 30 -9 40 -20 10
-11 29 -20 42 -20 13 0 26 -7 29 -15 4 -10 20 -15 49 -15 29 0 47 -6 60 -20
13 -14 31 -20 61 -20 33 0 46 -5 54 -20 8 -15 21 -20 54 -20 31 0 48 -6 61
-20 16 -18 30 -21 92 -19 56 1 77 -2 91 -15 16 -13 43 -16 170 -16 141 0 152
-1 162 -20 10 -19 21 -20 249 -20 230 0 239 1 244 20 5 19 14 20 146 20 119 0
141 2 149 16 8 14 24 16 85 15 65 -1 79 1 97 19 15 15 33 20 78 20 46 0 63 4
77 20 12 14 31 20 59 20 30 0 44 5 54 20 7 11 23 20 36 20 13 0 29 7 36 15 7
8 23 15 36 15 13 0 29 9 36 20 8 12 24 20 40 20 17 0 31 8 38 20 6 12 21 20
35 20 14 0 34 9 45 20 11 11 28 20 38 20 10 0 33 16 52 35 19 19 43 35 54 35
27 0 446 418 446 445 0 12 18 39 40 60 24 23 40 48 40 62 0 13 7 26 15 29 8 4
15 17 15 30 0 13 9 32 20 41 11 10 20 27 20 39 0 11 9 29 20 39 11 10 20 28
20 39 0 12 9 29 20 39 11 9 20 28 20 42 0 14 7 28 15 31 8 4 15 17 15 30 0 13
9 32 20 41 14 12 20 30 20 58 0 28 6 46 20 58 14 12 20 29 20 57 0 27 7 47 21
61 15 15 19 28 14 49 -5 21 -1 34 14 49 14 14 21 34 21 59 0 26 7 45 20 57 13
11 17 22 11 28 -5 5 -116 8 -255 8 l-246 -2 -25 -25 c-21 -21 -25 -34 -25 -83
0 -45 -4 -62 -20 -76 -13 -12 -20 -31 -20 -57 0 -25 -7 -45 -20 -58 -14 -14
-18 -28 -14 -49 5 -21 1 -34 -15 -50 -12 -12 -21 -32 -21 -46 0 -14 -8 -29
-20 -35 -12 -7 -20 -21 -20 -38 0 -16 -8 -32 -20 -40 -11 -7 -20 -22 -20 -35
0 -13 -15 -38 -35 -57 -19 -19 -35 -42 -35 -53 0 -25 -352 -377 -377 -377 -11
0 -34 -16 -53 -35 -19 -19 -44 -35 -55 -35 -12 0 -30 -9 -40 -20 -10 -11 -28
-20 -39 -20 -12 0 -29 -9 -39 -20 -9 -11 -28 -20 -41 -20 -13 0 -26 -7 -30
-15 -3 -8 -16 -15 -29 -15 -13 0 -32 -9 -42 -20 -13 -14 -31 -20 -61 -20 -33
0 -46 -5 -54 -20 -8 -15 -21 -20 -54 -20 -31 0 -48 -6 -62 -21 -16 -17 -28
-20 -90 -18 -57 3 -77 0 -92 -14 -17 -15 -55 -17 -415 -17 -358 0 -397 2 -405
17 -7 12 -23 16 -69 14 -48 -1 -63 2 -78 19 -14 16 -31 20 -75 20 -44 0 -61 4
-75 20 -13 14 -31 20 -59 20 -29 0 -47 6 -59 20 -9 11 -28 20 -41 20 -13 0
-26 7 -30 15 -3 8 -16 15 -29 15 -13 0 -32 9 -42 20 -10 11 -28 20 -40 20 -12
0 -30 9 -40 20 -10 11 -27 20 -39 20 -12 0 -42 23 -72 55 -30 31 -61 55 -72
55 -27 0 -342 314 -342 341 0 11 -16 35 -35 53 -19 19 -35 42 -35 53 0 10 -16
34 -35 53 -19 19 -35 42 -35 52 0 10 -9 27 -20 38 -13 13 -20 33 -20 60 0 28
-6 45 -20 57 -11 10 -20 27 -20 39 0 11 -9 29 -20 39 -14 13 -20 31 -20 60 0
29 -5 45 -15 49 -10 4 -15 19 -15 49 0 31 -6 49 -20 62 -17 15 -20 31 -20 95
0 64 -3 80 -20 95 -18 17 -20 31 -20 169 0 139 -2 153 -20 169 -18 15 -20 29
-20 145 0 116 2 131 20 147 18 16 20 31 20 150 0 119 2 134 20 150 17 15 20
31 20 95 0 64 3 80 20 95 14 13 20 31 20 60 0 29 5 45 15 49 10 4 15 20 15 51
0 34 5 48 20 57 15 10 20 24 20 58 0 34 5 48 20 58 11 7 20 23 20 36 0 12 9
31 20 41 11 10 20 28 20 39 0 12 16 36 35 53 20 19 35 42 35 55 0 14 14 35 35
52 20 17 35 39 35 50 0 28 317 346 345 346 11 0 35 16 52 35 18 19 42 35 53
35 11 0 28 9 37 20 10 11 27 20 39 20 11 0 29 9 39 20 10 11 29 20 42 20 13 0
26 7 29 15 4 8 17 15 30 15 13 0 32 9 41 20 10 11 28 20 40 20 13 0 31 9 40
20 12 14 30 20 58 20 28 0 46 6 58 20 13 16 29 20 76 20 40 0 63 5 71 15 9 11
33 15 90 15 64 0 80 3 95 20 18 19 31 20 430 20 399 0 412 -1 430 -20 15 -17
31 -20 95 -20 57 0 81 -4 90 -15 7 -9 29 -15 51 -15 27 0 45 -6 56 -20 12 -14
30 -20 59 -20 28 0 46 -6 59 -20 10 -11 28 -20 39 -20 12 0 29 -9 39 -20 9
-11 28 -20 41 -20 13 0 26 -7 30 -15 3 -8 16 -15 29 -15 14 0 39 -16 62 -40
21 -22 48 -40 60 -40 28 0 335 -308 335 -337 0 -11 16 -35 35 -52 19 -17 35
-40 35 -51 0 -11 9 -28 20 -37 11 -10 20 -29 20 -43 0 -14 9 -31 20 -38 11 -7
20 -23 20 -36 0 -12 9 -31 21 -42 16 -14 20 -27 15 -52 -4 -25 0 -37 15 -50
13 -11 19 -29 19 -58 0 -28 6 -46 20 -59 14 -13 20 -31 20 -60 0 -30 5 -45 16
-49 9 -3 114 -6 234 -6 253 0 240 -6 240 103 0 51 -4 67 -20 82 -16 14 -20 31
-20 77 0 46 -4 62 -20 75 -16 14 -20 30 -20 80 0 52 -3 64 -20 73 -13 7 -20
21 -20 39 0 16 -7 31 -15 35 -8 3 -15 16 -15 29 0 13 -9 32 -20 42 -11 10 -20
28 -20 41 0 13 -9 28 -20 34 -12 6 -20 21 -20 35 0 16 -18 42 -55 78 -30 29
-55 62 -55 73 0 27 -309 334 -336 334 -12 0 -35 17 -55 40 -21 25 -43 40 -57
40 -13 0 -36 15 -55 35 -17 19 -41 35 -53 35 -11 0 -29 9 -39 20 -10 11 -28
20 -40 20 -12 0 -30 9 -40 20 -10 11 -29 20 -42 20 -13 0 -26 7 -29 15 -4 8
-17 15 -30 15 -13 0 -32 9 -41 20 -12 14 -30 20 -59 20 -28 0 -46 6 -59 20
-12 14 -31 20 -59 20 -30 0 -44 5 -54 20 -9 15 -23 20 -57 20 -31 0 -47 5 -51
15 -5 12 -25 15 -90 15 -73 0 -85 3 -96 20 -12 19 -24 20 -170 20 -147 0 -158
1 -168 20 -10 19 -21 20 -219 20 -195 0 -209 -1 -226 -20z"/>
<path d="M6068 4888 l-28 -32 0 -2317 c0 -1275 3 -2324 6 -2333 6 -15 202 -16
2123 -16 l2117 0 27 28 c15 15 27 37 27 49 0 11 7 26 15 33 9 7 15 29 15 51 0
27 6 45 20 56 11 10 20 27 20 39 0 11 9 29 20 39 11 10 20 28 20 39 0 12 9 30
21 40 17 14 20 24 15 51 -5 27 -3 38 14 52 11 10 20 27 20 39 0 11 9 29 20 39
11 10 20 28 20 39 0 12 9 29 20 39 11 9 20 28 20 41 0 13 7 26 15 30 10 4 15
19 15 49 0 31 6 49 20 62 11 10 20 28 20 41 0 13 9 28 20 34 12 7 20 21 20 38
0 16 8 32 20 40 15 9 20 23 20 57 0 31 5 47 15 51 8 4 15 17 15 30 0 13 9 32
20 41 11 10 20 27 20 39 0 11 9 29 20 39 11 10 20 28 20 40 0 12 9 30 20 40
14 13 19 29 18 58 -1 27 4 42 15 49 9 5 17 19 17 32 0 13 9 31 20 41 11 10 20
28 20 40 0 12 9 30 20 40 14 13 20 31 20 60 0 29 5 45 15 49 8 3 15 16 15 29
0 13 9 32 20 42 11 10 20 29 20 41 0 13 9 29 20 36 12 8 20 24 20 40 0 17 8
31 20 38 15 8 20 21 20 54 0 27 6 48 15 56 8 7 15 21 15 31 0 11 9 28 20 39
11 11 20 31 20 45 0 14 8 29 20 35 11 6 20 21 20 34 0 13 9 31 20 41 14 13 20
31 20 62 0 30 5 45 15 49 8 4 15 17 15 30 0 13 9 32 20 41 11 10 20 27 20 39
0 11 9 29 20 39 14 13 20 31 20 59 0 29 6 47 20 59 11 9 20 25 20 36 0 10 7
24 15 31 8 7 15 22 15 35 0 12 9 30 20 40 14 13 20 31 20 61 0 33 5 46 20 54
11 6 20 20 20 32 0 12 8 30 17 40 10 12 16 32 15 53 -2 24 3 40 18 52 11 10
20 27 20 39 0 11 9 29 20 39 14 13 20 31 20 59 0 29 6 47 20 59 11 9 20 28 20
41 0 24 20 35 53 28 13 -3 17 -14 17 -50 0 -36 5 -50 20 -60 11 -7 20 -23 20
-36 0 -12 9 -31 20 -41 11 -10 20 -29 20 -42 0 -13 7 -26 15 -29 8 -4 15 -19
15 -35 0 -18 7 -32 20 -39 15 -8 20 -21 20 -54 0 -30 6 -48 20 -61 11 -10 20
-28 20 -41 0 -13 7 -27 16 -32 8 -5 17 -21 18 -37 2 -15 11 -32 20 -37 9 -5
16 -19 16 -32 0 -13 9 -31 20 -41 11 -10 20 -28 20 -40 0 -12 9 -30 20 -40 11
-10 20 -29 20 -42 0 -13 7 -26 15 -29 8 -4 15 -17 15 -30 0 -13 9 -32 20 -41
14 -12 20 -30 20 -60 0 -32 5 -45 20 -53 13 -7 20 -21 20 -38 0 -15 9 -35 20
-45 11 -9 20 -28 20 -41 0 -13 7 -26 15 -30 8 -3 15 -16 15 -29 0 -13 9 -32
20 -42 11 -10 20 -28 20 -41 0 -13 9 -28 20 -34 12 -6 20 -21 20 -35 0 -14 9
-34 20 -45 11 -11 20 -28 20 -39 0 -10 7 -24 15 -31 9 -8 15 -29 15 -56 0 -33
5 -46 20 -54 12 -7 20 -21 20 -38 0 -16 8 -32 20 -40 11 -7 20 -23 20 -36 0
-13 7 -29 15 -36 8 -7 15 -21 15 -31 0 -11 9 -28 20 -39 11 -11 20 -31 20 -45
0 -14 8 -29 20 -35 11 -6 20 -21 20 -34 0 -13 9 -31 20 -41 11 -10 20 -28 20
-40 0 -13 7 -28 15 -35 9 -7 15 -29 15 -51 0 -27 6 -45 20 -56 11 -10 20 -27
20 -39 0 -11 9 -29 20 -39 11 -10 20 -28 20 -39 0 -12 9 -29 20 -39 11 -9 20
-28 20 -41 0 -13 7 -26 15 -30 8 -3 15 -16 15 -29 0 -13 9 -32 20 -42 11 -10
20 -28 20 -40 0 -12 9 -30 20 -40 14 -12 20 -31 20 -58 0 -24 6 -44 15 -51 8
-6 17 -22 20 -35 2 -13 11 -31 20 -41 8 -9 15 -26 15 -37 0 -11 9 -28 20 -38
11 -10 20 -28 20 -41 0 -13 9 -28 20 -34 13 -7 20 -21 20 -39 0 -16 7 -31 15
-35 8 -3 15 -16 15 -29 0 -13 9 -32 20 -42 11 -10 20 -29 20 -41 0 -13 9 -29
20 -36 15 -10 20 -24 20 -58 0 -34 5 -48 20 -58 11 -7 20 -23 20 -36 0 -13 6
-29 14 -36 8 -6 16 -24 18 -38 l3 -27 670 0 670 0 3 22 c2 13 -5 29 -17 40
-12 9 -21 27 -21 39 0 11 -9 29 -20 39 -11 10 -20 28 -20 40 0 12 -9 30 -20
40 -12 10 -18 25 -16 32 3 7 -3 22 -14 33 -11 11 -20 29 -20 40 0 11 -9 28
-20 37 -11 10 -20 27 -20 39 0 11 -9 29 -20 39 -11 10 -20 29 -20 42 0 13 -7
26 -15 29 -8 4 -15 17 -15 30 0 13 -9 32 -20 41 -14 12 -20 30 -20 59 0 28 -6
46 -20 59 -11 10 -20 28 -20 39 0 12 -9 29 -20 39 -11 9 -20 28 -20 41 0 13
-7 26 -15 30 -8 3 -15 16 -15 29 0 13 -9 32 -20 42 -11 10 -20 28 -20 40 0 12
-9 30 -20 40 -11 10 -20 28 -20 39 0 12 -9 29 -20 39 -11 9 -20 28 -20 41 0
13 -7 26 -15 30 -8 3 -15 16 -15 29 0 13 -9 32 -20 42 -11 10 -20 28 -20 39 0
12 -9 29 -20 39 -14 12 -20 29 -20 61 0 30 -5 46 -15 50 -8 3 -15 14 -15 24 0
11 -9 31 -20 45 -11 14 -20 34 -20 46 0 11 -9 25 -20 31 -13 7 -20 21 -20 40
0 19 -7 33 -20 40 -11 6 -20 21 -20 34 0 13 -7 29 -15 36 -8 7 -15 23 -15 36
0 13 -9 29 -20 36 -12 8 -20 24 -20 40 0 17 -8 31 -20 38 -12 7 -20 21 -20 38
0 16 -8 32 -20 40 -11 7 -20 23 -20 36 0 13 -7 29 -15 36 -9 7 -15 29 -15 51
0 27 -6 45 -20 56 -11 10 -20 27 -20 39 0 11 -9 29 -20 39 -11 10 -20 28 -20
40 0 12 -9 30 -20 40 -11 10 -20 29 -20 42 0 13 -7 26 -15 29 -8 4 -15 17 -15
30 0 13 -9 32 -20 41 -11 10 -20 27 -20 39 0 11 -9 29 -20 39 -11 10 -20 29
-20 42 0 13 -7 26 -15 29 -8 4 -15 17 -15 30 0 13 -9 32 -20 41 -11 10 -20 27
-20 39 0 11 -9 29 -20 39 -14 13 -20 31 -20 59 0 29 -6 47 -20 59 -11 9 -20
28 -20 41 0 13 -7 26 -15 30 -8 3 -15 16 -15 29 0 13 -9 32 -20 42 -11 10 -20
28 -20 40 0 12 -9 30 -20 40 -11 10 -20 28 -20 39 0 12 -9 29 -20 39 -11 9
-20 28 -20 41 0 13 -7 26 -15 30 -8 3 -15 16 -15 29 0 13 -9 32 -20 42 -11 10
-20 28 -20 40 0 12 -9 30 -20 40 -11 10 -20 28 -20 39 0 12 -9 30 -21 39 -15
13 -19 25 -14 46 4 19 0 35 -15 53 -11 14 -20 35 -20 47 0 11 -9 25 -20 31
-13 7 -20 21 -20 40 0 19 -7 33 -20 40 -11 6 -20 21 -20 34 0 13 -7 29 -15 36
-8 7 -15 23 -15 36 0 13 -9 29 -20 36 -12 8 -20 24 -20 40 0 17 -8 31 -20 38
-12 7 -20 21 -20 38 0 16 -8 32 -20 40 -11 7 -20 23 -20 36 0 13 -7 29 -15 36
-8 7 -15 23 -15 36 0 13 -9 29 -20 36 -15 10 -20 24 -20 54 0 28 -6 47 -20 59
-11 10 -20 28 -20 40 0 12 -9 30 -20 40 -11 10 -20 29 -20 42 0 13 -7 26 -15
29 -8 4 -15 17 -15 30 0 13 -9 32 -20 41 -11 10 -20 27 -20 39 0 11 -9 29 -20
39 -11 10 -20 29 -20 42 0 13 -7 26 -15 29 -8 4 -15 16 -15 28 0 12 -13 37
-28 54 l-29 32 -563 0 -563 0 -29 -32 c-15 -17 -28 -39 -28 -49 0 -9 -7 -22
-15 -29 -9 -8 -15 -29 -15 -56 0 -33 -5 -46 -20 -54 -13 -7 -20 -21 -20 -40 0
-19 -7 -33 -20 -40 -11 -6 -20 -21 -20 -34 0 -13 -9 -31 -20 -41 -11 -10 -20
-29 -20 -42 0 -13 -7 -26 -15 -29 -8 -4 -15 -19 -15 -35 0 -18 -7 -32 -20 -39
-12 -7 -20 -21 -20 -38 0 -16 -8 -32 -20 -40 -11 -7 -20 -23 -20 -36 0 -13 -7
-29 -15 -36 -8 -7 -15 -21 -15 -31 0 -11 -9 -28 -20 -39 -11 -11 -20 -31 -20
-45 0 -14 -8 -29 -20 -35 -15 -8 -20 -21 -20 -54 0 -30 -6 -48 -20 -61 -11
-10 -20 -29 -20 -42 0 -13 -7 -26 -15 -29 -8 -4 -15 -17 -15 -30 0 -13 -9 -32
-20 -41 -11 -10 -20 -27 -20 -39 0 -11 -9 -29 -20 -39 -11 -10 -20 -28 -20
-39 0 -12 -9 -29 -20 -39 -11 -9 -20 -28 -20 -41 0 -13 -7 -26 -15 -30 -8 -3
-15 -16 -15 -29 0 -13 -9 -32 -20 -42 -11 -10 -20 -28 -20 -40 0 -12 -9 -30
-20 -40 -11 -10 -20 -28 -20 -41 0 -13 -7 -27 -16 -32 -8 -5 -17 -21 -18 -37
-2 -15 -11 -32 -20 -37 -11 -6 -16 -23 -16 -52 0 -30 -6 -48 -20 -61 -11 -10
-20 -28 -20 -41 0 -13 -9 -28 -20 -34 -13 -7 -20 -21 -20 -39 0 -16 -7 -31
-15 -35 -8 -3 -15 -16 -15 -29 0 -13 -9 -32 -20 -42 -11 -10 -20 -28 -20 -41
0 -13 -9 -28 -20 -34 -13 -7 -20 -21 -20 -38 0 -15 -9 -35 -20 -45 -11 -9 -20
-28 -20 -41 0 -13 -7 -26 -15 -30 -8 -3 -15 -16 -15 -29 0 -13 -9 -32 -20 -42
-11 -10 -20 -28 -20 -41 0 -13 -9 -28 -20 -34 -15 -8 -20 -21 -20 -54 0 -30
-6 -48 -20 -61 -11 -10 -20 -29 -20 -42 0 -13 -7 -26 -15 -29 -8 -4 -15 -19
-15 -35 0 -18 -7 -32 -20 -39 -12 -7 -20 -21 -20 -38 0 -16 -8 -32 -20 -40
-11 -7 -20 -23 -20 -36 0 -13 -7 -29 -15 -36 -8 -7 -15 -21 -15 -31 0 -11 -9
-28 -20 -39 -11 -11 -20 -31 -20 -45 0 -14 -8 -29 -20 -35 -11 -6 -20 -21 -20
-34 0 -13 -9 -31 -20 -41 -11 -10 -20 -28 -20 -40 0 -13 -7 -28 -15 -35 -8 -7
-15 -21 -15 -31 0 -11 -9 -27 -20 -36 -14 -12 -20 -30 -20 -59 0 -28 -6 -46
-20 -59 -11 -10 -20 -28 -20 -39 0 -12 -9 -29 -20 -39 -11 -9 -20 -28 -20 -41
0 -13 -7 -26 -15 -30 -8 -3 -15 -16 -15 -29 0 -13 -9 -32 -20 -42 -11 -10 -20
-28 -20 -40 0 -12 -9 -30 -20 -40 -11 -10 -20 -28 -20 -41 0 -13 -7 -27 -16
-32 -9 -5 -18 -22 -20 -37 -1 -16 -10 -32 -18 -37 -9 -5 -16 -19 -16 -32 0
-13 -9 -31 -19 -40 -11 -10 -21 -30 -23 -45 l-3 -26 -1072 -3 -1072 -2 -25 25
-26 26 -2 1872 -3 1872 -570 2 -570 3 -27 -32z"/>
<path d="M21310 2555 l0 -2365 575 0 575 0 0 733 0 733 68 67 c37 37 76 67 86
67 9 0 67 50 127 110 63 63 118 110 129 110 11 0 61 42 114 95 52 52 103 95
113 95 24 0 153 -130 153 -154 0 -10 34 -52 75 -93 44 -43 75 -82 75 -94 0
-12 29 -48 70 -88 39 -38 70 -77 70 -88 0 -10 34 -52 75 -93 46 -46 75 -83 75
-96 0 -13 28 -48 75 -93 44 -43 75 -81 75 -93 0 -12 39 -58 95 -113 58 -58 95
-102 95 -114 0 -13 30 -49 75 -93 46 -44 75 -80 75 -93 0 -12 30 -50 75 -95
42 -41 75 -83 75 -94 0 -10 33 -52 75 -93 41 -41 75 -83 75 -93 0 -11 34 -53
75 -94 41 -41 75 -83 75 -93 0 -10 28 -47 63 -81 l63 -62 772 0 c635 0 772 2
772 13 0 8 -16 27 -35 43 -21 17 -35 38 -35 51 0 14 -27 48 -75 96 -42 41 -75
82 -75 93 0 11 -38 58 -90 109 -49 49 -90 98 -90 108 0 10 -43 61 -95 114 -55
55 -95 103 -95 115 0 11 -39 58 -95 113 -56 55 -95 101 -95 113 0 11 -37 56
-90 108 -56 55 -90 95 -90 109 0 13 -36 56 -95 115 -53 53 -95 103 -95 114 0
10 -34 52 -75 92 -43 42 -75 82 -75 93 0 12 -39 59 -95 114 -55 54 -95 102
-95 113 0 11 -39 58 -90 109 -51 51 -90 98 -90 109 0 11 -40 59 -95 113 -55
55 -95 103 -95 114 0 11 -40 59 -95 113 -52 52 -95 103 -95 113 0 10 -34 52
-75 93 -45 45 -75 83 -75 95 0 12 -16 36 -35 55 -19 19 -35 42 -35 52 0 25 82
108 106 108 11 0 76 57 149 130 76 76 141 132 155 135 14 3 72 53 135 115 62
62 119 110 129 110 11 0 66 48 128 110 66 67 117 110 129 110 12 0 69 50 148
130 74 74 137 130 148 130 10 0 69 50 133 115 71 71 122 115 135 115 13 0 62
42 130 110 61 61 118 110 128 110 11 0 76 57 149 130 77 77 138 130 149 130
23 0 152 126 144 140 -4 6 -312 10 -832 10 l-825 0 -108 -110 c-66 -67 -116
-110 -128 -110 -12 0 -83 -64 -189 -170 -102 -102 -178 -170 -189 -170 -11 0
-80 -61 -169 -150 -93 -93 -157 -150 -170 -150 -12 0 -75 -56 -164 -145 -80
-80 -153 -145 -163 -145 -10 0 -85 -67 -168 -150 -87 -87 -158 -150 -169 -150
-11 0 -82 -63 -169 -150 -89 -89 -157 -150 -169 -150 -10 0 -43 -25 -73 -55
-30 -30 -59 -54 -65 -52 -7 3 -12 310 -15 928 l-5 924 -572 3 -573 2 0 -2365z"/>
<path d="M36022 4842 c-9 -7 -12 -58 -10 -223 l3 -214 1538 -3 c1538 -2 1539
-2 1555 18 16 19 26 21 152 18 119 -3 135 -5 138 -20 3 -14 -3 -18 -23 -18
-21 0 -79 -52 -296 -268 -165 -165 -269 -276 -269 -288 0 -12 -68 -87 -170
-189 -100 -100 -170 -178 -170 -189 0 -11 -76 -94 -185 -203 -110 -109 -185
-192 -185 -203 0 -11 -70 -88 -170 -189 -98 -97 -170 -177 -170 -188 0 -10
-78 -96 -185 -203 -117 -117 -185 -192 -185 -205 0 -13 -62 -81 -170 -188
-103 -102 -170 -176 -170 -188 0 -11 -73 -91 -185 -203 -105 -105 -185 -193
-185 -203 0 -10 -80 -98 -185 -203 -118 -118 -185 -192 -185 -205 0 -13 -62
-82 -170 -190 -99 -99 -170 -178 -170 -189 0 -10 -34 -51 -75 -92 l-75 -73 2
-213 3 -213 2088 -3 2087 -2 0 225 0 225 -1675 0 c-1664 0 -1674 0 -1685 -20
-10 -19 -21 -20 -150 -20 -133 0 -140 1 -140 20 0 15 7 20 25 20 20 0 77 52
260 235 131 131 235 243 235 253 0 10 83 101 185 202 121 121 185 191 185 205
0 14 64 84 185 205 107 106 185 192 185 202 0 11 79 97 187 205 109 109 187
195 188 207 2 13 79 97 189 206 118 118 186 192 186 205 0 13 68 88 185 205
108 108 185 193 185 203 0 11 77 96 185 203 113 113 185 192 185 204 0 12 74
92 190 208 113 113 190 197 190 208 0 12 75 94 185 204 123 122 185 192 185
206 0 11 18 37 40 58 l40 37 0 195 c0 116 -4 203 -10 215 -11 19 -43 19 -1948
19 -1065 0 -1943 -4 -1950 -8z"/>
    </g>
    <g fill="#e1005b">
<path d="M27100 3350 c-12 -8 -11 -13 8 -33 12 -13 22 -33 22 -45 0 -13 7 -25
15 -28 8 -4 15 -17 15 -30 0 -13 9 -32 20 -41 11 -10 20 -27 20 -38 0 -12 18
-39 40 -60 24 -23 40 -48 40 -62 0 -13 7 -26 15 -29 8 -4 15 -19 15 -35 0 -18
7 -32 20 -39 11 -6 20 -21 20 -35 0 -14 16 -39 40 -64 22 -22 40 -49 40 -59 0
-11 7 -25 15 -32 8 -7 15 -23 15 -36 0 -13 9 -29 20 -36 11 -7 20 -24 20 -38
0 -16 12 -35 35 -54 20 -17 35 -39 35 -51 0 -12 9 -30 20 -40 11 -10 20 -28
20 -40 0 -12 9 -30 20 -40 11 -10 20 -27 20 -38 0 -11 16 -34 35 -53 19 -18
35 -42 35 -53 0 -12 9 -29 20 -38 11 -10 20 -27 20 -38 0 -12 18 -39 40 -60
24 -23 40 -48 40 -62 0 -13 7 -26 15 -29 8 -4 15 -19 15 -35 0 -18 7 -32 20
-39 11 -6 20 -20 20 -32 0 -12 16 -38 35 -58 20 -20 37 -47 40 -60 2 -12 11
-30 20 -40 8 -9 15 -26 15 -38 0 -12 9 -26 20 -32 12 -7 20 -21 20 -38 0 -19
11 -36 35 -56 20 -17 35 -39 35 -51 0 -12 9 -30 20 -40 11 -10 20 -28 20 -41
0 -13 5 -26 11 -30 16 -9 99 76 99 102 0 11 9 29 20 39 11 10 20 27 20 37 0
11 18 37 40 59 24 24 40 49 40 63 0 13 7 26 15 30 8 3 15 16 15 29 0 13 9 32
20 42 11 10 20 28 20 41 0 13 15 35 35 53 19 17 35 40 35 51 0 11 9 28 20 37
11 10 20 27 20 39 0 11 9 29 20 39 11 10 20 28 20 40 0 11 16 36 35 55 19 19
35 42 35 52 0 10 9 27 20 38 11 11 20 31 20 45 0 14 8 29 20 35 11 6 20 21 20
33 0 13 15 38 35 57 20 19 35 44 35 57 0 13 9 28 20 35 11 7 20 23 20 36 0 14
16 39 40 63 24 24 40 49 40 63 0 13 7 26 15 30 8 3 15 16 15 29 0 13 9 32 20
42 11 10 20 28 20 39 0 12 16 36 35 53 19 18 35 42 35 53 0 11 9 28 20 37 11
10 20 27 20 39 0 11 9 29 20 39 11 10 20 28 20 40 0 11 16 36 35 55 20 19 35
44 35 57 0 12 9 27 20 33 12 7 20 21 20 38 0 17 8 32 21 40 16 11 18 16 9 28
-11 12 -165 14 -1109 14 -660 0 -1102 -4 -1111 -10z"/>
    </g>
  </g>
</svg>
